<?xml version="1.0" encoding="utf-8"?>
<!-- Generator: Adobe Illustrator 25.2.2, SVG Export Plug-In . SVG Version: 6.00 Build 0)  -->
<svg version="1.1" id="Layer_1" xmlns="http://www.w3.org/2000/svg" xmlns:xlink="http://www.w3.org/1999/xlink" x="0px" y="0px"
	 viewBox="0 0 1700.8 566.9" style="enable-background:new 0 0 1700.8 566.9;" xml:space="preserve">
<style type="text/css">
	.st0{fill:#FFFFFF;}
	.st1{clip-path:url(#SVGID_2_);}
	.st2{fill:#00AEEF;}
</style>
<path class="st0" d="M614.4,140v0.2V140z"/>
<path class="st0" d="M614.4,140v0.2V140z"/>
<path class="st0" d="M614.4,140v0.2V140z"/>
<g>
	<g>
		<g>
			<defs>
				<rect id="SVGID_1_" x="614.4" y="140" width="0" height="0.2"/>
			</defs>
			<clipPath id="SVGID_2_">
				<use xlink:href="#SVGID_1_"  style="overflow:visible;"/>
			</clipPath>
			<g class="st1">
				<g>
					<g>
						<g>
							<defs>
								<rect id="SVGID_3_" x="614.4" y="140" width="0" height="0.2"/>
							</defs>
							<clipPath id="SVGID_4_">
								<use xlink:href="#SVGID_3_"  style="overflow:visible;"/>
							</clipPath>
						</g>
					</g>
				</g>
			</g>
		</g>
	</g>
</g>
<g>
	<path class="st2" d="M865,394.2c-1.2,0-2.2,0.7-2.7,1.7l-27.2,58.3c-1.3,2.9-5.7,1.9-5.7-1.3l0.3-55.8c0-1.6-1.3-3-3-3h-19.3
		c-1.2,0-2.2,0.7-2.7,1.8L779,453.8c-1.3,2.9-5.7,2-5.7-1.2l0.4-55.3c0-1.6-1.3-3-3-3h-20c-1.7,0-3,1.4-3,3l2.9,96.8
		c0,1.6,1.4,2.9,3,2.9h24.3c1.2,0,2.2-0.7,2.7-1.7l20.9-44.9c1.3-2.9,5.7-1.9,5.7,1.3l-0.1,42.4c0,1.6,1.3,3,3,3h23.7
		c1.1,0,2.1-0.6,2.6-1.6l50.9-96.8c1-2-0.4-4.3-2.6-4.3L865,394.2L865,394.2z M903.6,394.2c-2.2,0-4,1.5-4.6,3.6l-23.2,93.3
		c-0.7,3,1.5,5.8,4.6,5.8h17c2.2,0,4-1.5,4.6-3.6l23.2-93.3c0.7-3-1.5-5.8-4.5-5.8H903.6z M1026.5,394.2c-1.1,0-2,0.6-2.5,1.5
		L987.2,459c-1.4,2.5-5.2,1.6-5.5-1.2l-6-60.9c-0.2-1.5-1.4-2.7-2.9-2.7h-29c-1.3,0-2.5,0.9-2.9,2.2l-24.1,96.8
		c-0.5,1.9,0.9,3.7,2.9,3.7h18.5c1.3,0,2.5-0.9,2.9-2.2l11-44c0.8-3.2,5.5-2.9,5.8,0.4l4.2,43.2c0.2,1.5,1.4,2.7,2.9,2.7h21.5
		c1,0,2-0.5,2.5-1.4l25.8-43.4c1.7-2.9,6.2-1.1,5.4,2.2l-9.8,39c-0.5,1.9,0.9,3.7,2.9,3.7h18.6c1.3,0,2.5-0.9,2.9-2.2l24.2-96.8
		c0.5-1.9-0.9-3.7-2.9-3.7L1026.5,394.2L1026.5,394.2z M1159.8,394.2c-1.1,0-2.1,0.6-2.6,1.5l-36.7,63.1c-1.4,2.5-5.3,1.7-5.6-1.2
		l-5.9-60.7c-0.2-1.5-1.4-2.7-3-2.7h-29c-1.4,0-2.6,0.9-2.9,2.3l-24.1,96.7c-0.5,1.9,0.9,3.7,2.9,3.7h18.5c1.4,0,2.6-0.9,2.9-2.3
		l10.9-43.8c0.8-3.2,5.6-2.9,5.9,0.4l4.2,42.9c0.2,1.5,1.4,2.7,3,2.7h21.4c1.1,0,2-0.5,2.6-1.5l25.6-43.2c1.8-3,6.3-1.1,5.5,2.2
		l-9.7,38.7c-0.5,1.9,1,3.7,2.9,3.7h18.5c1.4,0,2.6-0.9,2.9-2.3l24.2-96.7c0.5-1.9-0.9-3.7-2.9-3.7L1159.8,394.2L1159.8,394.2z
		 M1211.8,394.2c-2.2,0-4,1.5-4.6,3.6L1184,491c-0.7,3,1.5,5.9,4.6,5.9h17c2.2,0,4.1-1.5,4.6-3.6l23.2-93.2c0.7-3-1.5-5.9-4.6-5.9
		L1211.8,394.2L1211.8,394.2z M1319.2,394.2c-1.7,0-3.1,1.1-3.5,2.8l-12.5,50c-0.9,3.5-5.7,3.8-6.9,0.4l-19.3-50.9
		c-0.5-1.4-1.9-2.4-3.4-2.4h-21c-1.7,0-3.1,1.1-3.5,2.8l-23.8,95.4c-0.6,2.3,1.2,4.5,3.5,4.5h17.9c1.7,0,3.1-1.1,3.5-2.8l12.5-50.4
		c0.9-3.4,5.7-3.8,6.9-0.4l19.6,51.2c0.5,1.4,1.9,2.3,3.4,2.3h20.6c1.7,0,3.1-1.1,3.5-2.8l23.8-95.4c0.6-2.3-1.2-4.5-3.5-4.5
		L1319.2,394.2L1319.2,394.2z M663.2,425.8c0,6.6,2.6,12.3,7.7,16.6c3.6,3.2,6.8,4.9,16.5,9.5c17.2,8,18.6,9.1,18.6,14.8
		c0,7.1-5.7,11.4-14.9,11.4c-9.6,0-14.9-4.6-14.9-12.6l0,0c0-2.6-2-4.7-4.6-4.7h-16.8c-2.3,0-4.3,1.8-4.6,4.1
		c-0.2,1.2-0.2,2.3-0.2,3.8c0,18.8,15.7,30.6,40.6,30.6c25.8,0,42.7-14.5,42.7-36.3c0-4.3-0.8-7.9-2.3-11.1
		c-3.4-6.6-6.8-9.1-23.1-16.8l-8.3-4c-7.6-3.6-9.4-5.2-9.4-8.9c0-5.6,4.9-8.9,12.8-8.9c7.7,0,11.6,2.8,12.2,9.2
		c0.1,1.1,1,1.9,2.1,1.9l23.6,0.3c0-1.5,0.2-2.6,0.2-3.5c0-17.7-14.3-29.1-36.5-29.1C680.6,392,663.2,406.2,663.2,425.8
		 M1364.9,402.6c-16.3,11.7-26.6,32.8-26.6,54.5c0,27,16.1,42.2,44.8,42.2c15.5,0,28.2-3.6,40.7-11.5c0.9-0.6,1.6-1.6,1.9-2.7
		l9.2-36.7c0.7-2.8-1.4-5.4-4.2-5.4H1395c-2,0-3.8,1.4-4.3,3.3l-2.6,10.3c-0.7,2.8,1.4,5.5,4.2,5.5h9.3c2.9,0,4.9,2.7,4.3,5.4
		l-0.9,3.9c-0.3,1.2-1.1,2.3-2.3,2.9c-5.8,2.9-10.7,4-16.6,4c-13.2,0-20.3-7.2-20.3-20.8c0-24,14.5-44.2,31.6-44.2
		c8.7,0,13.6,3.8,15.4,12.2c0.4,2.1,2.2,3.6,4.4,3.6l16.9-0.2c2.5,0,4.5-2.1,4.3-4.6c-0.3-5.6-1-8.5-2.6-12.9
		c-5.1-12.4-17.5-19.4-35.9-19.4C1386.1,391.9,1374.9,395.3,1364.9,402.6"/>
	<path class="st2" d="M1347.3,216.9l10.3,31.4c0.3,0.9,0.5,1.9,0.2,2.8l-24.6,98.6h62.2c2.3,0,4.4-1.2,5-3.5l23.7-95.5
		c0.2-0.7,0.5-1.4,1-1.9l12-14.4c2.4-2.9,0.9-7.4-2.8-8.2c-26.9-6.3-54.1-11.5-81.3-15.9c-0.3,0-0.6-0.1-0.8-0.1
		C1348.7,210.2,1346.2,213.5,1347.3,216.9 M1143.3,193c-2.3-0.1-16.8,59.1-26.8,104.6c-0.2,0.9-1,1.5-1.8,1.5h-73.5
		c-5.3,0-9.2-5.5-7.9-10.6l19.4-78.3c1.4-5.4-3-10.6-8.6-10.2c-19.7,1.7-38.6,3.6-56.4,5.5c-0.8,0.1-1.4,0.7-1.6,1.4l-26.4,106
		c-0.4,1.7-2.7,2-3.5,0.5l-47.8-86.6c-0.8-1.5-2.6-2.3-4.3-2l-42.6,8.4c-5.5,1.1-11,2.2-16.4,3.3c-1.5,0.3-47.1,9.9-68.4,13.5
		c-0.7,0.1-33.9,7-48.4,8.8c-0.6,0.1-1.2,0.5-1.5,1.1c-1.4,3.1-3,10.2-4.9,13.3c-12.6,20.3-29.5,30.6-49,30.6
		c-19.4,0-33.4-8.9-40.4-24.8c-1.5-3.5-5.2-5.6-9-5.3c-18.6,1.4-53.8,3.5-57,4.2c-0.2-0.1-2.8,0.1-3,0.1c-70,1.6-129.5-1.9-183-7
		h-0.1L361,302.9c-0.8,1.3-2.8,1.2-3.4-0.3l-14.6-38c-1.6-4.2-5.2-7.2-9.6-8.1c-57.7-11.2-100.4-24.6-128.7-35.3
		c-7.2-2.7-15.1,1.5-17,8.9l-29.2,117.2c-0.3,1.2,0.6,2.4,1.8,2.4h55.1c5.1,0,9.4-3.1,10.6-8l19.6-78c1.2-4.9,5.6-8,10.6-8h11.1
		c4.9,0,9.2,3.1,10.5,7.8l23,78.7c1.4,4.7,5.7,7.5,10.5,7.5h88c2.7,0,5.1-1.1,6.5-3.3l25.5-43.5c1.4-2.3,3.8-4,6.5-4h62
		c4.9,0,9,3.8,9.4,8.7l2.3,33.4c0.3,4.9,4.4,8.6,9.2,8.6H572c4.4,0,7.9-3.5,7.5-7.9l-2.1-19.6c-0.2-1.9,2.2-2.8,3.3-1.4
		c18.4,22.7,47.7,35.2,85.4,35.2c35.5,0,64.8-10.2,86.9-29.6c1.4-1.2,3.5,0.1,3.1,1.9L752,345c-0.7,2.7,1.4,5.4,4.2,5.4l57.8,0.1
		c1.7,0,3.2-1.1,3.6-2.8l24.8-99.4c0.4-1.7,2.7-2,3.5-0.4l51.3,99.6c1,1.9,2.9,3,5,3l71.1-0.1l141-0.6h166.3c4.3,0,8-2.6,9.1-6.7
		l8.6-33c1.5-5.9-3-11-9.1-11h-93.8c-6.1,0-10.6-6.2-9.1-12.1l8.7-34.3c1.1-4.1,4.8-6.9,9.1-6.9h91.1c4.3,0,8-3.4,9.1-7.5l9.3-36.7
		c0.2-0.8-0.4-1.9-1.2-2c-13.2-0.9-103.3-7.1-148-7.1C1157.2,192.4,1150.2,192.9,1143.3,193"/>
	<path class="st2" d="M263.5,192.1l9-36.3c1.2-4.9,5.6-9.1,10.6-9.1h3c38.7,0,47.5,5.2,47.5,24.4c0,24.9-15.3,35-55.5,35h-3.9
		C266.9,206.1,261.7,199,263.5,192.1 M229.9,97.1c-5.1,0-9.4,2.4-10.6,7.3l-21.4,85.2c-1.4,5.4,1.6,10.7,6.8,12.7
		c31.8,11.9,81.7,27.2,150.4,39.1c29.6-15.2,47-42.4,47-76.4c0-24.5-10.3-44-27.9-54.7c-16.1-9.9-39.1-13.1-79.6-13.1h-64.7V97.1z
		 M1479.1,97.1c-2.7,0-5.3,0.3-6.9,2.5l-58.2,77.9c-4.3,5.8-13.5,3.8-15.3-3.2l-18.7-71.6c-1-3.8-4.4-5.6-8.4-5.6h-36.7h-15.5
		h-141.7c-4.5,0-8.4,2.1-9.5,6.4l-14.6,58.1c-1.5,6.2,3.2,11.9,9.5,11.9c17.6,0,35.5,0,53.6,0.6l4.7-19.3c1.1-4.4,5-8.1,9.5-8.1
		h93.7l11.7,36.4c1,3.1,3.7,5.7,6.9,6.2c37.5,5.7,75,13.3,112.1,22.7l85-101.8c1.3-1.6,1.9-3.4,2-5.1v-0.4c-0.1-4.1-3.6-7.7-8.7-7.7
		L1479.1,97.1L1479.1,97.1z M463.3,241.5l32.7-64c2.3-4.5,9-2.8,9,2.2l0.6,66c0,1.4-1.1,2.6-2.6,2.6h-35.5
		C464,248.3,461.6,244.7,463.3,241.5 M708.5,89.5c-69,0-125.5,47.6-143.5,115.4L554,99.8c-0.2-2.4-2.3-3.9-4.8-3.9h-58.5
		c-1.7,0-3.2,0.4-4.1,1.9l-91.1,148.7c-1.9,3,0.1,6.8,3.6,7.2c50.3,4.5,107.4,6.7,171.5,5c17-0.7,31.2-2.5,48.6-3.9
		c2.6-0.2,5,0,7-1.6c1-0.8,1.1-1.7,1.1-2c0-57.8,36-109.1,76.2-109.1c22.7,0,35.3,11.9,37.6,36.2c0.2,1.8,1.8,3.2,3.6,3.2l47.9-0.6
		l-11.1,44.6c-0.5,2.2,1.3,4.2,3.5,3.9c26.5-4.5,53.6-9.6,81.5-15.4c0,0,20.3-4.7,55.8-10.9c0.6-0.1,1.2-0.4,1.6-0.8l85.8-81
		l-12.7,52c-1.5,6.1,3.5,11.9,9.8,11.2c17.8-1.9,36.5-3.6,56.1-5.1l17.5-69.8c1.8-7.1-3.6-13.6-11-13.6h-44.1c-0.2,0-0.4,0-0.6,0
		c-0.1,0-0.2,0-0.3,0h-64.5c-1.4,0-2.7,0.1-3.7,1.1l-86.9,84.1c-3.8,3.7-10.2,0-8.9-5.2l18.4-73.8c0.8-3.4-1.7-6.2-5.2-6.2h-55.3
		c-2.4,0-4.6,1.2-5.2,3.6l-12.5,50.1C791.2,111.4,758.7,89.5,708.5,89.5"/>
</g>
</svg>
