<svg id="Layer_1" data-name="Layer 1" xmlns="http://www.w3.org/2000/svg" viewBox="0 0 1190.55 1190.55"><defs><style>.cls-1{fill:#ffd400;}.cls-2{fill:#243842;}.cls-3{fill:#fff;}</style></defs><path class="cls-1" d="M595.28,162.91c-238.42,0-432.37,194-432.37,432.37s194,432.35,432.37,432.35,432.36-193.94,432.36-432.35-194-432.37-432.36-432.37m0,893.49c-254.27,0-461.14-206.86-461.14-461.12S341,134.15,595.28,134.15,1056.42,341,1056.42,595.28,849.53,1056.4,595.28,1056.4"/><path class="cls-1" d="M595.28,110C327.7,110,110,327.71,110,595.27s217.69,485.27,485.27,485.27,485.27-217.69,485.27-485.27S862.86,110,595.28,110m0,999.3c-283.44,0-514-230.6-514-514s230.6-514,514-514,514,230.6,514,514-230.59,514-514,514"/><path class="cls-1" d="M595.28,57.11c-296.75,0-538.17,241.42-538.17,538.17s241.42,538.15,538.17,538.15S1133.44,892,1133.44,595.28,892,57.11,595.28,57.11m0,1105.09c-312.61,0-566.93-254.32-566.93-566.92S282.67,28.35,595.28,28.35,1162.2,282.67,1162.2,595.28,907.87,1162.2,595.28,1162.2"/><path class="cls-2" d="M593.78,187.35c-225.29,0-407.92,182.63-407.92,407.93S368.49,1003.2,593.78,1003.2,1001.7,820.57,1001.7,595.28,819.07,187.35,593.78,187.35"/><polygon class="cls-3" points="810.03 565.25 810.03 681.49 761.99 681.49 761.99 565.25 703.87 401.74 752.68 401.74 786.39 508.29 787.17 508.29 819.33 401.74 868.15 401.74 810.03 565.25"/><polygon class="cls-3" points="650.35 443.58 650.35 681.49 602.3 681.49 602.3 443.58 555.8 443.58 555.8 401.74 680.67 401.74 695.54 443.58 650.35 443.58"/><rect class="cls-3" x="486.83" y="401.74" width="48.05" height="279.75"/><path class="cls-3" d="M466.31,495.11H418.26V473.42c0-23.63-10.83-33.71-23.25-33.71-19.37,0-25.57,10.08-25.57,31V612.52c0,20.92,6.2,31,25.57,31,17.44,0,23.25-10.07,23.25-28.28V581.52h48.05v32.16c0,39.52-23.25,71.67-71.3,71.67-50.37,0-73.6-32.15-73.6-71.67V469.54c0-39.52,23.23-71.69,73.6-71.69,48.05,0,71.3,34.88,71.3,76.73Z"/><path class="cls-3" d="M322.76,802.15v-77h13.18V756.5h14V725.14h13.17v77H350V768h-14v34.13Z"/><path class="cls-3" d="M375.9,802.15v-77h35.28v11.52H389.07V756.5h17V768h-17v22.61h23.59v11.52Z"/><path class="cls-3" d="M430.73,802.15H418l14.13-77h16.36l14.14,77H449.86l-2.34-17.07H433.07ZM435,773.57H445.6l-5.2-33.07h-.22Z"/><path class="cls-3" d="M469.62,802.15v-77H482.8v65.49h20.72v11.52Z"/><path class="cls-3" d="M517.33,736.66H504.58V725.14h38.68v11.52H530.51v65.49H517.33Z"/><path class="cls-3" d="M551,802.15v-77h13.17V756.5h14V725.14H591.4v77H578.22V768h-14v34.13Z"/><path class="cls-3" d="M654.31,750.85v-6c0-6.51-3-9.28-6.38-9.28-5.31,0-7,2.77-7,8.53v39c0,5.75,1.7,8.53,7,8.53,4.78,0,6.38-2.78,6.38-7.79v-9.28h13.17v8.86c0,10.87-6.37,19.73-19.55,19.73-13.81,0-20.19-8.86-20.19-19.73V743.81c0-10.88,6.38-19.73,20.19-19.73,13.18,0,19.55,9.6,19.55,21.12v5.65Z"/><path class="cls-3" d="M680.23,802.15v-77h13.18v65.49h20.72v11.52Z"/><path class="cls-3" d="M722.21,725.14h13.18v58.13c0,5.65,2.23,8.43,7,8.43s7-2.78,7-8.43V725.14h13.18v57.6c0,13.22-7.65,20.48-20.19,20.48s-20.19-7.26-20.19-20.48Z"/><path class="cls-3" d="M775.34,725.14h19.55c14.14,0,20.41,7.26,20.41,20.38,0,6.61-2.77,13.54-9.14,16.1,6.69,3,10.62,8.32,10.62,18.24,0,12.69-5.63,22.29-20.61,22.29H775.34Zm13.18,31.57h4.78c5,0,8.82-3.41,8.82-9.81,0-7.14-2.76-10.88-8.61-10.88h-5Zm0,34.56H794c7,0,9.57-4,9.57-11.84s-3-11.84-10.84-11.84h-4.25Z"/><path class="cls-3" d="M852.49,744.13c-.53-6.61-4-8.53-7-8.53-4.25,0-6.59,2.77-6.59,7.57,0,13.12,26.78,19.41,26.78,40.32,0,12.69-8.5,19.73-20.83,19.73s-19.24-9.82-19.77-21.33l12.54-1.82c.53,7.79,3.62,11.63,7.87,11.63,4.57,0,7.65-2.46,7.65-7,0-15.25-26.78-19.31-26.78-41.38,0-12.27,7.44-19.2,20.4-19.2,10.73,0,17.11,7.78,18.28,18.66Z"/></svg>