<svg id="Layer_1" data-name="Layer 1" xmlns="http://www.w3.org/2000/svg" viewBox="0 0 1190.55 1190.55"><defs><style>.cls-1{fill:#ffd400;}.cls-2{fill:#00aeef;}.cls-3{fill:#fff;}</style></defs><path class="cls-1" d="M595.28,162.91c-238.42,0-432.37,194-432.37,432.37s194,432.35,432.37,432.35,432.36-193.94,432.36-432.35-194-432.37-432.36-432.37m0,893.49c-254.27,0-461.14-206.86-461.14-461.12S341,134.15,595.28,134.15,1056.42,341,1056.42,595.28,849.53,1056.4,595.28,1056.4"/><path class="cls-1" d="M595.28,110C327.7,110,110,327.71,110,595.27s217.69,485.27,485.27,485.27,485.27-217.69,485.27-485.27S862.86,110,595.28,110m0,999.3c-283.44,0-514-230.6-514-514s230.6-514,514-514,514,230.6,514,514-230.59,514-514,514"/><path class="cls-1" d="M595.28,57.11c-296.75,0-538.17,241.42-538.17,538.17s241.42,538.15,538.17,538.15S1133.44,892,1133.44,595.28,892,57.11,595.28,57.11m0,1105.09c-312.61,0-566.93-254.32-566.93-566.92S282.67,28.35,595.28,28.35,1162.2,282.67,1162.2,595.28,907.87,1162.2,595.28,1162.2"/><path class="cls-2" d="M593.78,187.35c-225.29,0-407.92,182.63-407.92,407.93S368.49,1003.2,593.78,1003.2,1001.7,820.57,1001.7,595.28,819.07,187.35,593.78,187.35"/><polygon class="cls-3" points="809.03 554.56 809.03 670.8 760.99 670.8 760.99 554.56 702.87 391.04 751.68 391.04 785.39 497.6 786.17 497.6 818.33 391.04 867.15 391.04 809.03 554.56"/><polygon class="cls-3" points="649.35 432.89 649.35 670.8 601.3 670.8 601.3 432.89 554.8 432.89 554.8 391.04 679.67 391.04 694.54 432.89 649.35 432.89"/><rect class="cls-3" x="485.83" y="391.04" width="48.05" height="279.75"/><path class="cls-3" d="M465.31,484.42H417.26V462.73c0-23.64-10.83-33.72-23.25-33.72-19.37,0-25.57,10.08-25.57,31V601.83c0,20.92,6.2,31,25.57,31,17.44,0,23.25-10.07,23.25-28.28V570.82h48.05V603c0,39.52-23.25,71.67-71.3,71.67-50.37,0-73.6-32.15-73.6-71.67V458.85c0-39.52,23.23-71.69,73.6-71.69,48.05,0,71.3,34.88,71.3,76.73Z"/><path class="cls-3" d="M344,835.27H324.9L346,720.64h24.45l21.11,114.63H372.53L369,809.87h-21.6Zm6.35-42.55h15.88L358.4,743.5h-.32Z"/><path class="cls-3" d="M469.22,843.85c-7.3,0-13-1.27-20-10.64-4.29,2.38-9.69,3.65-16,3.65-20.64,0-30.16-13.18-30.16-29.37V748.43c0-16.2,9.52-29.38,30.16-29.38s30.17,13.18,30.17,29.38v59.06A31.94,31.94,0,0,1,460,822.25c4.45,3.81,7.15,4.29,9.21,4.45Zm-34.61-49.54a28.87,28.87,0,0,1,9.05,7V748.9c0-8.57-2.54-12.7-10.48-12.7s-10.48,4.13-10.48,12.7V807c0,8.58,2.54,12.7,10.48,12.7,3,0,5.24-.63,6.67-1.74a15.48,15.48,0,0,0-5.24-6.19Z"/><path class="cls-3" d="M482.41,720.64h19.68v86.53c0,8.42,3.34,12.54,10.48,12.54s10.48-4.12,10.48-12.54V720.64h19.69v85.74c0,19.68-11.43,30.48-30.17,30.48s-30.16-10.8-30.16-30.48Z"/><path class="cls-3" d="M573.23,835.27H554.18l21.11-114.63h24.45l21.12,114.63H601.81l-3.5-25.4H576.72Zm6.35-42.55h15.88l-7.78-49.22h-.32Z"/><path class="cls-3" d="M637.85,737.79H618.8V720.64h57.79v17.15H657.54v97.48H637.85Z"/><path class="cls-3" d="M690.88,835.27V720.64h19.69V835.27Z"/><path class="cls-3" d="M772,758.9V750c0-9.68-4.45-13.81-9.53-13.81-7.94,0-10.48,4.13-10.48,12.7V807c0,8.58,2.54,12.7,10.48,12.7,7.15,0,9.53-4.12,9.53-11.59V794.31H791.7v13.18c0,16.19-9.52,29.37-29.21,29.37-20.64,0-30.16-13.18-30.16-29.37V748.43c0-16.2,9.52-29.38,30.16-29.38,19.69,0,29.21,14.29,29.21,31.44v8.41Z"/><path class="cls-3" d="M847.6,748.9c-.8-9.84-6-12.7-10.48-12.7-6.35,0-9.85,4.13-9.85,11.27,0,19.53,40,28.9,40,60,0,18.89-12.7,29.37-31.11,29.37-18.26,0-28.74-14.61-29.54-31.75l18.74-2.7c.79,11.59,5.4,17.3,11.75,17.3,6.83,0,11.43-3.65,11.43-10.47,0-22.71-40-28.74-40-61.61,0-18.26,11.11-28.58,30.48-28.58,16,0,25.57,11.59,27.31,27.79Z"/></svg>