
<svg id="Layer_1" data-name="Layer 1" xmlns="http://www.w3.org/2000/svg" viewBox="0 0 1048.82 256.32"><defs><style>.cls-1{fill:#f6b9c6;}.cls-2{fill:#dd251d;}.cls-3{fill:#fff;}.cls-4{fill:none;stroke:#f5c5d1;stroke-miterlimit:10;stroke-width:4px;}.cls-5{fill:#de261d;}</style></defs><path class="cls-1" d="M64.35,60.82V81.09H104.1v27.79H64.35v46.73H31.51v-126h81.13V60.82Z"/><path class="cls-1" d="M126.77,29.61H160v126H126.77Z"/><path class="cls-1" d="M175.22,133.88l20.11-19.72c5.2,7.69,14.91,12.35,25.39,12.35,7.07,0,14-2.56,14-7.69,0-6.44-12.81-12.11-25.08-17.54C193.78,94.44,180.19,84,180.19,65.17c0-21.66,20.57-37.11,44.33-37.11,19.1,0,34,9,38.9,21.35L244.24,67.89c-3.72-6.6-13.35-9.47-19.33-9.47-6.83,0-11.72,3.49-11.72,7.76,0,5.75,8.85,7.61,22.36,13.28,19.56,8.23,32.53,20.18,32.53,38.66,0,23.84-22.21,38.67-47.29,38.67C200.22,156.79,181.51,147.7,175.22,133.88Z"/><path class="cls-1" d="M385.87,29.61v126H352.72V108H315.53v47.66H282.3v-126h33.23V76.9h37.19V29.61Z"/><path class="cls-1" d="M531.67,45.87v95h-7.92L475.49,93.14v47.22H450.56V45.17h8l48.1,46.58V45.87Z"/><path class="cls-1" d="M628.4,60.82V81.09h39.76v27.79H628.4v46.73H595.56v-126h81.13V60.82Z"/><path class="cls-1" d="M772,124.4v31.21H690.83v-126h33.23V124.4Z"/><path class="cls-1" d="M786.09,29.61h33.24v126H786.09Z"/><path class="cls-1" d="M941.24,133.88l20.11-19.72c5.2,7.69,14.91,12.35,25.39,12.35,7.07,0,14-2.56,14-7.69,0-6.44-12.81-12.11-25.08-17.54C959.8,94.44,946.21,84,946.21,65.17c0-21.66,20.57-37.11,44.33-37.11,19.1,0,34,9,38.9,21.35l-19.18,18.48c-3.72-6.6-13.35-9.47-19.33-9.47-6.83,0-11.72,3.49-11.72,7.76,0,5.75,8.85,7.61,22.36,13.28,19.56,8.23,32.53,20.18,32.53,38.66,0,23.84-22.21,38.67-47.29,38.67C966.24,156.79,947.53,147.7,941.24,133.88Z"/><path class="cls-1" d="M890.35,29.61H843.07v126h33.22V117.89h14.06c26.24,0,47.28-20.27,47.28-44.41C937.63,49,916.12,29.61,890.35,29.61Z"/><polygon class="cls-2" points="16.58 140 16.58 15.68 96.03 15.68 96.03 45.22 47.74 45.22 47.74 67.16 87.5 67.16 87.5 93.28 47.74 93.28 47.74 140 16.58 140"/><path class="cls-3" d="M95.2,16.52V44.38H46.9V68H86.66V92.44H46.9v46.72H17.42V16.52H95.2m1.67-1.68H15.74v126H48.58V94.12H88.33V66.32H48.58V46.06H96.87V14.84Z"/><rect class="cls-2" x="111.84" y="15.68" width="31.56" height="124.32"/><path class="cls-3" d="M142.56,16.52V139.16H112.68V16.52h29.88m1.68-1.68H111v126h33.24v-126Z"/><path class="cls-2" d="M205,141.18c-20.43,0-38.24-8.77-44.57-21.88l19-18.62c5.43,7.37,15.1,11.9,25.5,11.9,7.14,0,14.81-2.67,14.81-8.53,0-7-13-12.73-25.53-18.29-19.78-8.53-29-19.76-29-35.36,0-20.34,19.11-36.27,43.49-36.27,17.62,0,32.76,8.14,37.91,20.3l-18,17.37c-4.4-6.53-14.14-9-19.5-9-7.16,0-12.56,3.7-12.56,8.6,0,5.09,5.6,7.26,14.88,10.86,2.39.93,5.11,2,8,3.19,21.54,9.07,32,21.46,32,37.9,0,11-4.81,20.6-13.91,27.6C229,137.55,217.45,141.18,205,141.18Z"/><path class="cls-3" d="M208.75,15c17,0,31.68,7.7,36.91,19.27L228.75,50.53c-4.81-6.2-14.3-8.56-19.61-8.56-7.64,0-13.4,4.06-13.4,9.44,0,5.66,6.14,8,15.42,11.64,2.39.93,5.09,2,8,3.19,21.2,8.91,31.51,21.05,31.51,37.12,0,10.78-4.7,20.1-13.59,26.94-8.41,6.48-19.79,10-32,10-19.52,0-37.19-8.53-43.54-20.87L179.36,102c5.68,7.12,15.29,11.47,25.59,11.47,10.81,0,15.65-4.71,15.65-9.37,0-7.52-12.64-13.13-26-19.06l0,0h0C175.13,76.61,166.1,65.62,166.1,50.4,166.1,30.53,184.84,15,208.75,15m0-1.68c-23.75,0-44.33,15.45-44.33,37.11,0,18.87,13.59,29.28,29.43,36.11,12.27,5.43,25.08,11.1,25.08,17.54,0,5.13-6.91,7.69-14,7.69-10.48,0-20.18-4.66-25.39-12.34l-20.11,19.72c6.29,13.82,25,22.9,45.58,22.9,25.08,0,47.28-14.83,47.28-38.66,0-18.48-13-30.44-32.53-38.67-13.51-5.67-22.36-7.53-22.36-13.28,0-4.27,4.89-7.76,11.72-7.76,6,0,15.61,2.87,19.34,9.47l19.17-18.48c-4.89-12.34-19.8-21.35-38.9-21.35Z"/><polygon class="cls-2" points="337.79 140 337.79 92.35 298.92 92.35 298.92 140 267.37 140 267.37 15.68 298.92 15.68 298.92 62.97 337.79 62.97 337.79 15.68 369.26 15.68 369.27 140 337.79 140"/><path class="cls-3" d="M368.43,16.52V139.16h-29.8V91.51H298.08v47.65H268.21V16.52h29.87V63.81h40.55V16.52h29.8m1.67-1.68H337V62.13H299.76V14.84H266.53v126h33.23V93.18H337v47.66H370.1v-126Z"/><polygon class="cls-2" points="508.43 124.76 458.98 76.86 458.98 124.22 435.73 124.22 435.73 30.71 442.59 30.71 491.87 78.43 491.85 31.41 515.16 31.41 515.17 124.76 508.43 124.76"/><path class="cls-3" d="M442.25,31.55l47.61,46.11,2.84,2.75V32.24h21.63v91.68h-5.56L461,77.64l-2.84-2.76v48.51H436.57V31.55h5.68m.68-1.68h-8v95.19h24.92V78.84l48.28,46.76H516v-95H491V76.45l-48.1-46.58Z"/><polygon class="cls-2" points="580.63 140 580.63 15.68 660.09 15.68 660.09 45.22 611.8 45.22 611.8 67.16 651.55 67.16 651.55 93.28 611.8 93.28 611.8 140 580.63 140"/><path class="cls-3" d="M659.25,16.52V44.38H611V68h39.75V92.44H611v46.72H581.47V16.52h77.78m1.68-1.68H579.79v126h32.85V94.12h39.75V66.32H612.64V46.06h48.29V14.84Z"/><polygon class="cls-2" points="675.9 140 675.9 15.68 707.45 15.68 707.45 110.47 755.35 110.47 755.35 140 675.9 140"/><path class="cls-3" d="M706.61,16.52V111.3h47.91v27.86H676.74V16.52h29.87m1.68-1.68H675.06v126h81.13V109.63h-47.9V14.84Z"/><rect class="cls-2" x="771.17" y="15.68" width="31.55" height="124.32"/><path class="cls-3" d="M801.88,16.52V139.16H772V16.52h29.88m1.68-1.68H770.33v126h33.23v-126Z"/><path class="cls-2" d="M828.14,140V15.68h46.44c25.61,0,46.44,19.31,46.44,43,0,24-20.83,43.57-46.44,43.57H859.69V140Zm31.55-66.71,15.06.08a16.66,16.66,0,0,0,11.41-4.19,13.94,13.94,0,0,0,4.48-10.31c0-8.09-6.91-14.2-16.06-14.2H859.69Z"/><path class="cls-3" d="M874.58,16.52c25.15,0,45.61,18.93,45.61,42.19a41.17,41.17,0,0,1-13.28,30,46.75,46.75,0,0,1-32.33,12.7H858.85v37.71H829V16.52h45.61m.17,57.69c9.53,0,16.72-6.6,16.72-15.34,0-8.57-7.26-15-16.89-15H858.85V74.12h1.67l14.05.08h.18m-.17-59.37H827.3v126h33.23V103.12h14.05c26.24,0,47.28-20.26,47.28-44.41,0-24.46-21.5-43.87-47.28-43.87Zm.17,57.69h-.17l-14.05-.08V45.51h14.05c8.85,0,15.22,5.75,15.22,13.36s-6.21,13.66-15,13.66Z"/><path class="cls-2" d="M971.05,141.18c-20.43,0-38.24-8.77-44.56-21.88l19-18.62c5.43,7.37,15.1,11.9,25.5,11.9,7.14,0,14.82-2.67,14.82-8.53,0-7-13-12.73-25.54-18.29-19.78-8.53-29-19.76-29-35.36,0-20.34,19.11-36.27,43.49-36.27,17.62,0,32.76,8.14,37.91,20.3l-18,17.37c-4.4-6.53-14.14-9-19.5-9-7.16,0-12.56,3.7-12.56,8.6,0,5.09,5.6,7.26,14.88,10.86,2.39.93,5.1,2,8,3.19,21.55,9.07,32,21.46,32,37.9,0,11-4.81,20.6-13.91,27.6C995,137.55,983.47,141.18,971.05,141.18Z"/><path class="cls-3" d="M974.77,15c17,0,31.68,7.7,36.91,19.27L994.77,50.53C990,44.33,980.47,42,975.16,42c-7.64,0-13.4,4.06-13.4,9.44,0,5.66,6.14,8,15.42,11.64,2.39.93,5.09,2,8,3.19,21.2,8.91,31.51,21.05,31.51,37.12,0,10.78-4.7,20.1-13.59,26.94-8.41,6.48-19.79,10-32,10-19.52,0-37.19-8.53-43.54-20.87L945.38,102c5.68,7.12,15.29,11.47,25.59,11.47,10.81,0,15.65-4.71,15.65-9.37,0-7.52-12.64-13.13-26-19.06l-.05,0h0c-19.38-8.36-28.41-19.35-28.41-34.57,0-19.87,18.74-35.43,42.65-35.43m0-1.68c-23.75,0-44.33,15.45-44.33,37.11,0,18.87,13.59,29.28,29.43,36.11C972.14,91.94,985,97.61,985,104.05c0,5.13-6.91,7.69-14,7.69-10.48,0-20.18-4.66-25.39-12.34l-20.11,19.72c6.29,13.82,25,22.9,45.58,22.9,25.08,0,47.28-14.83,47.28-38.66,0-18.48-13-30.44-32.53-38.67-13.51-5.67-22.36-7.53-22.36-13.28,0-4.27,4.89-7.76,11.72-7.76,6,0,15.61,2.87,19.34,9.47l19.17-18.48c-4.89-12.34-19.8-21.35-38.9-21.35Z"/><line class="cls-4" x1="374.25" y1="183.49" x2="674.57" y2="183.49"/><path class="cls-5" d="M374.25,236.69,378,234a7.48,7.48,0,0,0,6.7,3.68c3.35,0,5.9-1.62,5.9-3.9,0-2.76-3.94-4.43-7.43-5.94s-7.4-3.37-7.4-8.07c0-4.9,4.25-8.31,9.63-8.31,4.27,0,7.46,2.06,8.68,5.34l-3.48,2.42a5.58,5.58,0,0,0-5.16-3.16c-2.75,0-4.94,1.71-4.94,3.82,0,2.34,2.77,3.18,6.4,4.73,4.74,2.08,8.41,4.36,8.41,9.08,0,5.3-4.6,8.72-10.67,8.72C379.68,242.44,376,240.14,374.25,236.69Z"/><path class="cls-5" d="M397.26,212h5.07l5.55,18.46,6.84-17.2h.19l6.84,17.18L427.28,212h5.07l-9.5,30.19h-.43l-7.66-18-7.55,18h-.43Z"/><path class="cls-5" d="M437.57,212h4.69v29.91h-4.69Z"/><path class="cls-5" d="M479.21,211.38v30.56h-4.69V225.35l-9.93,16.09h0l-9.95-16.11v16.61h-4.69V211.38h.35l14.3,21.74,14.29-21.74Z"/><path class="cls-5" d="M498.17,236.69l3.71-2.66a7.51,7.51,0,0,0,6.7,3.68c3.36,0,5.9-1.62,5.9-3.9,0-2.76-3.93-4.43-7.42-5.94s-7.4-3.37-7.4-8.07c0-4.9,4.25-8.31,9.63-8.31,4.27,0,7.46,2.06,8.68,5.34l-3.49,2.42a5.56,5.56,0,0,0-5.16-3.16c-2.74,0-4.93,1.71-4.93,3.82,0,2.34,2.76,3.18,6.4,4.73,4.73,2.08,8.41,4.36,8.41,9.08,0,5.3-4.61,8.72-10.67,8.72C503.61,242.44,499.88,240.14,498.17,236.69Z"/><path class="cls-5" d="M523.69,227a15.64,15.64,0,0,1,15.44-15.49,15.07,15.07,0,0,1,10.39,4.56l-2.73,3.69a11.11,11.11,0,0,0-7.75-3.48,10.72,10.72,0,0,0,0,21.43,11.07,11.07,0,0,0,7.75-3.57l2.71,3.79a14.26,14.26,0,0,1-10.31,4.49A15.58,15.58,0,0,1,523.69,227Z"/><path class="cls-5" d="M577.47,212v29.91h-4.69V229.3H559.83v12.64h-4.68V212h4.68v12.61h12.95V212Z"/><path class="cls-5" d="M583.7,227a15.47,15.47,0,1,1,15.43,15.4A15.51,15.51,0,0,1,583.7,227Zm26.18,0a10.73,10.73,0,1,0-10.75,10.69A10.78,10.78,0,0,0,609.88,227Z"/><path class="cls-5" d="M619.4,227a15.47,15.47,0,1,1,15.44,15.4A15.51,15.51,0,0,1,619.4,227Zm26.18,0a10.73,10.73,0,1,0-10.74,10.69A10.77,10.77,0,0,0,645.58,227Z"/><path class="cls-5" d="M674.57,237.26v4.68h-18V212h4.69v25.23Z"/></svg>